<svg width="160" height="74" viewBox="0 0 160 74" xmlns="http://www.w3.org/2000/svg">
<path d="M26.7792 40.4225C26.7792 42.2108 26.3784 43.6754 25.5768 44.8162C24.8059 45.957 23.9119 46.959 22.8943 47.8223C22.3393 48.2849 21.7535 48.7319 21.1369 49.1636C20.5511 49.5952 19.8728 49.9806 19.1019 50.3197C18.362 50.659 17.4987 50.921 16.5121 51.106C15.5563 51.3219 14.4309 51.4297 13.1359 51.4297C10.7926 51.4297 8.64977 51.1985 6.70734 50.736C4.76489 50.2735 2.94579 49.5336 1.25 48.516L3.60867 42.5963C4.28699 43.0279 5.04238 43.5058 5.87486 44.0299C6.70734 44.5233 7.57064 44.9858 8.46478 45.4174C9.38976 45.849 10.3456 46.2191 11.3322 46.5274C12.3497 46.8049 13.3979 46.9436 14.4771 46.9436C15.217 46.9436 15.8646 46.8974 16.4196 46.8049C17.0053 46.6815 17.4987 46.4812 17.8996 46.2037C18.2387 45.957 18.4853 45.5253 18.6395 44.9087C18.7936 44.2612 18.8708 43.4904 18.8708 42.5963C18.8708 41.5479 18.4545 40.731 17.6221 40.145C16.8204 39.5593 15.8184 39.0505 14.6159 38.6188C13.4133 38.1564 12.0876 37.7093 10.6385 37.2777C9.22017 36.8151 7.9098 36.2293 6.70734 35.5202C5.50488 34.7803 4.4874 33.8399 3.65493 32.6991C2.85328 31.5274 2.45246 30.0012 2.45246 28.1204C2.45246 27.5039 2.56038 26.8871 2.77621 26.2705C2.99203 25.623 3.26952 25.0064 3.60867 24.4205C3.97867 23.8347 4.39491 23.2951 4.85739 22.8019C5.31988 22.2777 5.78237 21.8153 6.24485 21.4144C7.41648 20.4278 8.69603 19.7033 10.0835 19.2407C11.5018 18.7474 13.1359 18.5007 14.9859 18.5007C16.5275 18.5007 18.1461 18.5933 19.842 18.7782C21.5686 18.9324 23.2027 19.1173 24.7443 19.3332L23.6806 25.623C22.9406 25.3763 22.1236 25.1298 21.2293 24.8831C20.3661 24.6364 19.4874 24.4205 18.5933 24.2356C17.7299 24.0198 16.8974 23.8501 16.0959 23.7268C15.2942 23.6036 14.5696 23.5418 13.9221 23.5418C13.1204 23.5418 12.4884 23.588 12.0259 23.6806C11.5943 23.7423 11.2551 23.8501 11.0085 24.0043C10.7618 24.1585 10.5768 24.4668 10.4535 24.9293C10.361 25.3609 10.3147 25.808 10.3147 26.2705C10.3147 27.2264 10.7156 27.9817 11.5172 28.5367C12.3497 29.0917 13.3671 29.585 14.5696 30.0167C15.803 30.4483 17.1287 30.8954 18.547 31.3578C19.9652 31.7895 21.2757 32.3754 22.4781 33.1153C23.7114 33.8553 24.7289 34.7957 25.5305 35.9364C26.363 37.0772 26.7792 38.5726 26.7792 40.4225Z"/>
<path d="M43.8912 50.8285H34.4102V19.1945H43.8912V50.8285ZM38.9889 1.25L44.9549 7.16982L38.9889 13.0896L33.0691 7.16982L38.9889 1.25Z"/>
<path d="M66.8305 39.2664C67.6938 39.2664 68.403 39.2047 68.9579 39.0814C69.5437 38.9273 70.0679 38.7114 70.5305 38.4339C70.9929 38.1564 71.363 37.3547 71.6405 36.029C71.9487 34.7031 72.1029 33.0074 72.1029 30.9416C72.1029 29.8008 71.9796 28.737 71.7329 27.7504C71.5171 26.733 71.1779 25.8543 70.7154 25.1142C70.2838 24.3743 69.7288 23.8039 69.0505 23.4031C68.3722 22.9714 67.5859 22.7556 66.6918 22.7556C65.8901 22.7556 65.2118 22.8173 64.6568 22.9406C64.1327 23.064 63.6394 23.2797 63.1769 23.588C62.6836 23.9273 62.2827 24.7443 61.9744 26.0393C61.6969 27.3034 61.5582 28.9991 61.5582 31.1267C61.5582 32.2366 61.6661 33.2849 61.8819 34.2715C62.1286 35.2581 62.4678 36.1214 62.8994 36.8615C63.3619 37.6014 63.9169 38.1872 64.5644 38.6188C65.2118 39.0505 65.9673 39.2664 66.8305 39.2664ZM63.5932 72.8892C61.3732 72.8892 59.4924 72.7041 57.9508 72.3342C56.44 71.9641 55.2068 71.4554 54.251 70.808C53.2951 70.1912 52.6014 69.4667 52.1698 68.6342C51.7689 67.8018 51.5685 66.9231 51.5685 65.9981C51.5685 65.1964 51.7226 64.4564 52.031 63.7781C52.3393 63.0998 52.771 62.4678 53.3259 61.8819C53.8809 61.2961 54.5284 60.7411 55.2684 60.217C56.0391 59.6929 56.8871 59.1995 57.812 58.737L60.0783 59.292C59.8624 59.9703 59.7083 60.5715 59.6157 61.0957C59.5541 61.6507 59.5233 62.2673 59.5233 62.9456C59.5233 64.3639 60.032 65.5048 61.0494 66.3681C62.0978 67.2314 63.624 67.663 65.628 67.663C66.553 67.663 67.4781 67.6168 68.403 67.5243C69.328 67.4317 70.2221 67.293 71.0855 67.108C71.9488 66.9539 72.7349 66.7534 73.444 66.5068C74.1841 66.291 74.8161 66.0443 75.3403 65.7668C76.0802 65.3661 76.5428 64.7493 76.7277 63.9169C76.9436 63.1152 77.0514 62.1286 77.0514 60.957C77.0514 58.6137 74.5695 57.4421 69.6055 57.4421L64.3331 57.3958C60.5716 57.365 57.8274 56.8408 56.1009 55.8234C54.3743 54.8059 53.5109 53.0947 53.5109 50.6898C53.5109 49.8881 53.6806 49.1019 54.0197 48.3311C54.3897 47.5603 54.8522 46.8203 55.4071 46.1111C55.9621 45.3712 56.5633 44.6929 57.2108 44.0763C57.8892 43.4287 58.5366 42.8584 59.1533 42.365C58.1975 41.9333 57.2879 41.3784 56.4246 40.7C55.5921 39.9909 54.8522 39.1738 54.2046 38.2489C53.5572 37.3239 53.033 36.2757 52.6322 35.104C52.2622 33.9324 52.0772 32.6683 52.0772 31.3116C52.0772 29.3076 52.4319 27.5193 53.141 25.9467C53.8809 24.3435 54.8984 23.0022 56.1934 21.9231C57.4883 20.8132 59.0145 19.9652 60.7719 19.3794C62.5602 18.7936 64.4873 18.5007 66.553 18.5007C68.2796 18.5007 69.8058 18.5933 71.1317 18.7782C72.4574 18.9632 73.7679 19.2253 75.0628 19.5645C75.8953 19.5336 76.7739 19.4874 77.699 19.4258C78.624 19.364 79.5489 19.287 80.4739 19.1945C81.3989 19.1019 82.293 19.0095 83.1563 18.917C84.0196 18.7936 84.8058 18.6549 85.515 18.5007L84.8212 22.6168C84.1121 22.8635 83.2026 23.064 82.0926 23.2181C80.9827 23.3415 79.9805 23.4031 79.0864 23.4031C79.5181 24.1122 79.9651 25.0834 80.4277 26.3167C80.9209 27.5501 81.1676 29.1379 81.1676 31.0803C81.1676 33.0845 80.7976 34.8573 80.0576 36.3989C79.3485 37.9406 78.3465 39.2355 77.0514 40.2838C75.7873 41.3321 74.2765 42.1338 72.5191 42.6888C70.7616 43.2129 68.8346 43.475 66.738 43.475C66.0597 43.475 65.2581 43.4595 64.3331 43.4287C63.4081 43.367 62.6836 43.2592 62.1594 43.105C61.9128 43.475 61.6507 43.9837 61.3732 44.6313C61.1265 45.2787 61.0032 45.9108 61.0032 46.5274C61.0032 47.2674 61.3732 47.7761 62.1132 48.0536C62.884 48.3003 64.2252 48.4236 66.1368 48.4236H73.6753C75.957 48.4236 77.8685 48.6086 79.4101 48.9786C80.9517 49.3177 82.2004 49.8573 83.1563 50.5972C84.1121 51.3065 84.7904 52.216 85.1913 53.3259C85.5921 54.4359 85.7924 55.7618 85.7924 57.3034C85.7924 59.1533 85.2375 61.0032 84.1275 62.8531C83.0175 64.7339 81.4759 66.4143 79.5027 67.8943C77.5294 69.3742 75.1861 70.5767 72.4729 71.5017C69.7596 72.4266 66.7997 72.8892 63.5932 72.8892Z"/>
<path d="M120.155 46.1575C120.987 46.1575 122.082 45.9724 123.439 45.6025V47.7299C122.946 48.1923 122.359 48.6394 121.681 49.071C121.003 49.5028 120.278 49.8881 119.508 50.2273C118.737 50.5356 117.935 50.7823 117.103 50.9673C116.27 51.1522 115.453 51.2447 114.652 51.2447C113.788 51.2447 113.048 51.1214 112.432 50.8747C111.815 50.659 111.275 50.3661 110.813 49.996C110.381 49.5952 110.011 49.1636 109.703 48.7011C109.395 48.2385 109.133 47.7761 108.917 47.3136C108.115 47.8378 107.329 48.3465 106.558 48.8398C105.787 49.3331 104.97 49.7803 104.107 50.181C103.274 50.551 102.38 50.8439 101.424 51.0598C100.5 51.3065 99.4666 51.4297 98.3258 51.4297C95.736 51.4297 93.6856 50.659 92.1748 49.1173C90.6948 47.5757 89.9548 45.2479 89.9548 42.1338C89.9548 40.4689 90.1707 39.0351 90.6024 37.8327C91.0648 36.5994 91.7894 35.5819 92.776 34.7803C93.7626 33.9478 95.0423 33.3311 96.6147 32.9304C98.1871 32.4986 100.114 32.252 102.396 32.1903L108.084 32.0053V27.4267C108.084 26.1934 107.73 25.2993 107.021 24.7443C106.312 24.1585 105.124 23.8655 103.459 23.8655C102.257 23.8655 100.869 24.0043 99.2971 24.2818C97.7246 24.5593 96.0905 25.0218 94.3947 25.6692L93.0998 22.3856C94.2406 21.8923 95.4276 21.4144 96.6609 20.952C97.925 20.4894 99.1891 20.0732 100.453 19.7033C101.748 19.3332 103.043 19.0403 104.338 18.8244C105.664 18.6087 106.99 18.5007 108.316 18.5007C109.765 18.5007 111.06 18.6395 112.2 18.917C113.372 19.1637 114.343 19.5953 115.114 20.2119C115.916 20.8286 116.517 21.6456 116.918 22.6631C117.349 23.6806 117.565 24.9447 117.565 26.4555V41.0701C117.565 44.4616 118.429 46.1575 120.155 46.1575ZM108.501 44.6775C108.47 44.5541 108.439 44.215 108.408 43.66C108.377 43.0741 108.331 42.3496 108.269 41.4863C108.238 40.5922 108.208 39.5901 108.177 38.4801C108.146 37.3701 108.131 36.1985 108.131 34.9652C105.818 34.9652 104.061 35.104 102.858 35.3815C101.656 35.6281 100.916 35.9364 100.638 36.3065C100.515 36.4606 100.407 36.7227 100.314 37.0926C100.222 37.4627 100.145 37.8789 100.083 38.3413C100.022 38.8039 99.9754 39.2818 99.9446 39.7751C99.9138 40.2684 99.8984 40.7154 99.8984 41.1163C99.8984 42.5347 100.099 43.7062 100.5 44.6313C100.931 45.5253 101.64 45.9724 102.627 45.9724C103.675 45.9724 104.677 45.849 105.633 45.6025C106.589 45.3558 107.545 45.0475 108.501 44.6775Z"/>
<path d="M156.414 46.1575C157.246 46.1575 158.341 45.9724 159.698 45.6025V47.7299C159.205 48.1923 158.618 48.6394 157.94 49.071C157.262 49.5028 156.537 49.8881 155.767 50.2273C154.996 50.5356 154.194 50.7823 153.362 50.9673C152.529 51.1522 151.712 51.2447 150.911 51.2447C150.048 51.2447 149.307 51.1214 148.69 50.8747C148.074 50.659 147.534 50.3661 147.072 49.996C146.64 49.5952 146.27 49.1636 145.962 48.7011C145.654 48.2385 145.392 47.7761 145.176 47.3136C144.374 47.8378 143.588 48.3465 142.817 48.8398C142.046 49.3331 141.23 49.7803 140.366 50.181C139.533 50.551 138.639 50.8439 137.683 51.0598C136.758 51.3065 135.725 51.4297 134.585 51.4297C131.995 51.4297 129.945 50.659 128.433 49.1173C126.954 47.5757 126.214 45.2479 126.214 42.1338C126.214 40.4689 126.43 39.0351 126.861 37.8327C127.324 36.5994 128.049 35.5819 129.035 34.7803C130.021 33.9478 131.301 33.3311 132.874 32.9304C134.446 32.4986 136.374 32.252 138.654 32.1903L144.344 32.0053V27.4267C144.344 26.1934 143.989 25.2993 143.28 24.7443C142.571 24.1585 141.384 23.8655 139.718 23.8655C138.516 23.8655 137.128 24.0043 135.556 24.2818C133.983 24.5593 132.35 25.0218 130.654 25.6692L129.359 22.3856C130.499 21.8923 131.687 21.4144 132.919 20.952C134.184 20.4894 135.448 20.0732 136.713 19.7033C138.007 19.3332 139.303 19.0403 140.597 18.8244C141.923 18.6087 143.249 18.5007 144.574 18.5007C146.024 18.5007 147.318 18.6395 148.46 18.917C149.631 19.1637 150.602 19.5953 151.373 20.2119C152.174 20.8286 152.776 21.6456 153.177 22.6631C153.608 23.6806 153.824 24.9447 153.824 26.4555V41.0701C153.824 44.4616 154.688 46.1575 156.414 46.1575ZM144.759 44.6775C144.728 44.5541 144.698 44.215 144.667 43.66C144.636 43.0741 144.59 42.3496 144.528 41.4863C144.498 40.5922 144.467 39.5901 144.436 38.4801C144.405 37.3701 144.389 36.1985 144.389 34.9652C142.077 34.9652 140.32 35.104 139.117 35.3815C137.915 35.6281 137.175 35.9364 136.898 36.3065C136.774 36.4606 136.666 36.7227 136.573 37.0926C136.481 37.4627 136.403 37.8789 136.343 38.3413C136.28 38.8039 136.234 39.2818 136.204 39.7751C136.173 40.2684 136.157 40.7154 136.157 41.1163C136.157 42.5347 136.358 43.7062 136.758 44.6313C137.19 45.5253 137.9 45.9724 138.886 45.9724C139.934 45.9724 140.936 45.849 141.892 45.6025C142.848 45.3558 143.804 45.0475 144.759 44.6775Z"/>
<path d="M111.045 69.837V63.1737C111.045 62.6441 111.025 62.156 110.984 61.709C110.942 61.2551 110.856 60.901 110.726 60.6465C110.588 60.3715 110.392 60.1687 110.138 60.0381C109.883 59.9073 109.54 59.842 109.106 59.842C108.707 59.842 108.278 59.9658 107.817 60.2133C107.363 60.4541 106.892 60.8047 106.404 61.2655C106.411 61.3824 106.418 61.5233 106.424 61.6883C106.438 61.8465 106.445 62.0357 106.445 62.2557V69.837H104.506V63.1737C104.506 62.6441 104.485 62.156 104.444 61.709C104.403 61.2551 104.317 60.901 104.186 60.6465C104.049 60.3715 103.853 60.1687 103.598 60.0381C103.344 59.9073 103 59.842 102.567 59.842C102.147 59.842 101.707 59.9727 101.247 60.234C100.786 60.4952 100.339 60.8289 99.9056 61.2345V69.837H97.9664V58.3154H99.9056V59.5945C100.414 59.0856 100.916 58.6937 101.412 58.4186C101.914 58.1367 102.464 57.9957 103.062 57.9957C103.743 57.9957 104.344 58.1504 104.867 58.4599C105.396 58.7693 105.799 59.2782 106.074 59.9865C106.658 59.3332 107.229 58.8381 107.786 58.5011C108.343 58.1641 108.948 57.9957 109.601 57.9957C110.096 57.9957 110.547 58.0748 110.953 58.2329C111.358 58.3842 111.712 58.6317 112.015 58.9756C112.325 59.3263 112.562 59.7629 112.727 60.2856C112.899 60.8082 112.985 61.4649 112.985 62.2557V69.837H111.045Z"/>
<path d="M125.187 64.0814C125.187 66.0205 124.72 67.5196 123.784 68.5786C122.849 69.6306 121.605 70.1567 120.05 70.1567C118.448 70.1567 117.186 69.6135 116.265 68.527C115.35 67.4336 114.893 65.9517 114.893 64.0814C114.893 62.156 115.364 60.6604 116.306 59.5945C117.255 58.5287 118.503 57.9957 120.05 57.9957C121.605 57.9957 122.849 58.5287 123.784 59.5945C124.72 60.6535 125.187 62.1491 125.187 64.0814ZM123.186 64.0814C123.186 62.5892 122.914 61.4821 122.371 60.7601C121.828 60.0311 121.054 59.6667 120.05 59.6667C119.039 59.6667 118.259 60.0311 117.709 60.7601C117.165 61.4821 116.894 62.5892 116.894 64.0814C116.894 65.5255 117.165 66.6223 117.709 67.3718C118.259 68.1145 119.039 68.4858 120.05 68.4858C121.047 68.4858 121.817 68.1213 122.36 67.3924C122.911 66.6566 123.186 65.5529 123.186 64.0814Z"/>
<path d="M134.842 64.0401C134.842 62.6648 134.632 61.623 134.212 60.9147C133.793 60.1996 133.119 59.842 132.191 59.842C131.661 59.842 131.125 59.9658 130.581 60.2134C130.045 60.4609 129.557 60.7738 129.116 61.152V67.7534C129.605 67.9941 130.038 68.1661 130.417 68.2691C130.795 68.3655 131.211 68.4136 131.664 68.4136C132.654 68.4136 133.432 68.0629 133.995 67.3614C134.56 66.66 134.842 65.5529 134.842 64.0401ZM136.843 63.8855C136.843 65.7695 136.386 67.2858 135.471 68.4342C134.556 69.5825 133.411 70.1568 132.036 70.1568C131.41 70.1568 130.874 70.0777 130.427 69.9195C129.987 69.7682 129.55 69.5619 129.116 69.3006L128.993 69.837H127.177V53.7873H129.116V59.5222C129.605 59.0822 130.135 58.7177 130.706 58.429C131.276 58.1402 131.922 57.9957 132.645 57.9957C133.944 57.9957 134.968 58.5183 135.718 59.5636C136.468 60.6019 136.843 62.0425 136.843 63.8855Z"/>
<path d="M140.834 69.837H138.895V58.3154H140.834V69.837ZM140.968 56.3866H138.762V54.3753H140.968V56.3866Z"/>
<path d="M145.662 69.837H143.723V53.7873H145.662V69.837Z"/>
<path d="M153.511 70.1052C151.675 70.1052 150.248 69.5895 149.231 68.5579C148.22 67.5196 147.714 66.0481 147.714 64.1432C147.714 62.266 148.206 60.7738 149.189 59.6667C150.173 58.5527 151.459 57.9957 153.047 57.9957C153.762 57.9957 154.395 58.0988 154.944 58.3052C155.495 58.5115 155.976 58.8346 156.389 59.2747C156.801 59.7148 157.117 60.2546 157.338 60.8942C157.558 61.5268 157.668 62.3038 157.668 63.2253V64.2773H149.685C149.685 65.6182 150.021 66.6428 150.695 67.3511C151.369 68.0594 152.301 68.4136 153.49 68.4136C153.916 68.4136 154.333 68.3655 154.739 68.2691C155.151 68.1729 155.522 68.0492 155.853 67.8979C156.203 67.7397 156.499 67.5884 156.74 67.444C156.98 67.2927 157.18 67.1517 157.338 67.0211H157.452V69.1356C157.225 69.2249 156.942 69.3385 156.605 69.476C156.269 69.6067 155.966 69.7098 155.698 69.7854C155.319 69.8886 154.975 69.9676 154.666 70.0226C154.364 70.0777 153.978 70.1052 153.511 70.1052ZM155.78 62.7921C155.767 62.2695 155.705 61.8191 155.595 61.4408C155.485 61.0627 155.326 60.7429 155.12 60.4815C154.893 60.1927 154.6 59.9727 154.243 59.8215C153.892 59.6702 153.457 59.5945 152.934 59.5945C152.418 59.5945 151.977 59.6735 151.613 59.8317C151.256 59.983 150.929 60.2065 150.634 60.5022C150.345 60.8047 150.124 61.1417 149.974 61.513C149.822 61.8775 149.725 62.3038 149.685 62.7921H155.78Z"/>
</svg>
