<svg width="25" height="25" viewBox="0 0 25 25" fill="none" xmlns="http://www.w3.org/2000/svg">
<mask id="mask0_501_639" style="mask-type:alpha" maskUnits="userSpaceOnUse" x="0" y="0" width="25" height="25">
<rect x="0.5" y="0.333313" width="24" height="24" fill="#D9D9D9"/>
</mask>
<g mask="url(#mask0_501_639)">
<path d="M12.5 6.33331C11.95 6.33331 11.4792 6.13748 11.0875 5.74581C10.6958 5.35415 10.5 4.88331 10.5 4.33331C10.5 3.78331 10.6958 3.31248 11.0875 2.92081C11.4792 2.52915 11.95 2.33331 12.5 2.33331C13.05 2.33331 13.5208 2.52915 13.9125 2.92081C14.3042 3.31248 14.5 3.78331 14.5 4.33331C14.5 4.88331 14.3042 5.35415 13.9125 5.74581C13.5208 6.13748 13.05 6.33331 12.5 6.33331ZM9.5 22.3333V9.33331C8.5 9.24998 7.48333 9.12498 6.45 8.95831C5.41667 8.79165 4.43333 8.58331 3.5 8.33331L4 6.33331C5.3 6.68331 6.68333 6.93748 8.15 7.09581C9.61667 7.25415 11.0667 7.33331 12.5 7.33331C13.9333 7.33331 15.3833 7.25415 16.85 7.09581C18.3167 6.93748 19.7 6.68331 21 6.33331L21.5 8.33331C20.5667 8.58331 19.5833 8.79165 18.55 8.95831C17.5167 9.12498 16.5 9.24998 15.5 9.33331V22.3333H13.5V16.3333H11.5V22.3333H9.5Z" fill="#35457E"/>
</g>
</svg>
