<svg width="17" height="16" viewBox="0 0 17 16" fill="none" xmlns="http://www.w3.org/2000/svg">
<g id="dark_mode">
<mask id="mask0_253_2680" style="mask-type:alpha" maskUnits="userSpaceOnUse" x="0" y="-1" width="17" height="17">
<rect id="Bounding box" x="0.299805" y="-0.000244141" width="16" height="16" fill="#D9D9D9"/>
</mask>
<g mask="url(#mask0_253_2680)">
<path id="dark_mode_2" d="M8.29928 13.5994C6.74417 13.5994 5.42217 13.055 4.33328 11.9661C3.2444 10.8772 2.69995 9.55497 2.69995 7.99941C2.69995 6.44386 3.24401 5.12164 4.33212 4.03275C5.42023 2.94386 6.74151 2.39941 8.29595 2.39941C8.44106 2.39941 8.58356 2.40497 8.72345 2.41608C8.86334 2.42719 9.00551 2.44386 9.14995 2.46608C8.71662 2.7883 8.37217 3.1883 8.11662 3.66608C7.86106 4.14386 7.73328 4.65497 7.73328 5.19941C7.73328 6.14386 8.05828 6.94108 8.70828 7.59108C9.35828 8.24108 10.1555 8.56608 11.0999 8.56608C11.6444 8.56608 12.1555 8.4383 12.6333 8.18275C13.1111 7.92719 13.5111 7.58275 13.8333 7.14941C13.8555 7.29386 13.8722 7.43602 13.8833 7.57591C13.8944 7.7158 13.9 7.8583 13.9 8.00341C13.9 9.55786 13.3553 10.8791 12.266 11.9672C11.1766 13.0554 9.85439 13.5994 8.29928 13.5994ZM8.29995 12.3994C9.21106 12.3994 10.0376 12.1379 10.7796 11.6149C11.5215 11.0918 12.0672 10.4089 12.4166 9.56608C12.1944 9.62164 11.974 9.66886 11.7555 9.70775C11.537 9.74664 11.3185 9.76608 11.0999 9.76608C9.83484 9.76608 8.75745 9.32125 7.86778 8.43158C6.97812 7.54191 6.53328 6.46452 6.53328 5.19941C6.53328 4.98086 6.55273 4.76236 6.59162 4.54391C6.63051 4.32536 6.67773 4.10497 6.73328 3.88275C5.89051 4.23219 5.20756 4.77786 4.68445 5.51975C4.16145 6.26175 3.89995 7.0883 3.89995 7.99941C3.89995 9.22164 4.32773 10.2605 5.18328 11.1161C6.03884 11.9716 7.07773 12.3994 8.29995 12.3994Z" fill="#8A93B4"/>
</g>
</g>
</svg>
