<svg width="24" height="24" viewBox="0 0 24 24" fill="none" xmlns="http://www.w3.org/2000/svg">
<g id="arrow_drop_down">
<mask id="mask0_147_1193" style="mask-type:alpha" maskUnits="userSpaceOnUse" x="0" y="0" width="24" height="24">
<rect id="Bounding box" x="24" y="24" width="24" height="24" transform="rotate(-180 24 24)" fill="#D9D9D9"/>
</mask>
<g mask="url(#mask0_147_1193)">
<path id="arrow_drop_down_2" d="M12.525 9.525L16.15 13.15C16.2 13.2 16.2375 13.2542 16.2625 13.3125C16.2875 13.3708 16.3 13.4333 16.3 13.5C16.3 13.6333 16.2542 13.75 16.1625 13.85C16.0709 13.95 15.95 14 15.8 14L8.20005 14C8.05005 14 7.92921 13.95 7.83755 13.85C7.74588 13.75 7.70005 13.6333 7.70005 13.5C7.70005 13.4667 7.75005 13.35 7.85005 13.15L11.475 9.525C11.5584 9.44167 11.6417 9.38333 11.725 9.35C11.8084 9.31667 11.9 9.3 12 9.3C12.1 9.3 12.1917 9.31667 12.275 9.35C12.3584 9.38333 12.4417 9.44167 12.525 9.525Z" fill="#757575"/>
</g>
</g>
</svg>
