<svg width="24" height="25" viewBox="0 0 24 25" fill="none" xmlns="http://www.w3.org/2000/svg">
<g id="arrow_drop_down">
<mask id="mask0_522_1980" style="mask-type:alpha" maskUnits="userSpaceOnUse" x="0" y="0" width="24" height="25">
<rect id="Bounding box" y="0.333252" width="24" height="24" fill="#D9D9D9"/>
</mask>
<g mask="url(#mask0_522_1980)">
<path id="arrow_drop_down_2" d="M11.475 14.8083L7.85001 11.1833C7.80001 11.1333 7.76251 11.0791 7.73751 11.0208C7.71251 10.9624 7.70001 10.8999 7.70001 10.8333C7.70001 10.6999 7.74585 10.5833 7.83751 10.4833C7.92918 10.3833 8.05001 10.3333 8.20001 10.3333H15.8C15.95 10.3333 16.0708 10.3833 16.1625 10.4833C16.2542 10.5833 16.3 10.6999 16.3 10.8333C16.3 10.8666 16.25 10.9833 16.15 11.1833L12.525 14.8083C12.4417 14.8916 12.3583 14.9499 12.275 14.9833C12.1917 15.0166 12.1 15.0333 12 15.0333C11.9 15.0333 11.8083 15.0166 11.725 14.9833C11.6417 14.9499 11.5583 14.8916 11.475 14.8083Z" fill="#757575"/>
</g>
</g>
</svg>
