<svg width="24" height="24" viewBox="0 0 24 24" xmlns="http://www.w3.org/2000/svg">
<mask id="mask0_119_1658" style="mask-type:alpha" maskUnits="userSpaceOnUse" x="0" y="0" width="24" height="24">
<rect width="24" height="24" fill="#D9D9D9"/>
</mask>
<g mask="url(#mask0_119_1658)">
<path d="M21.0001 16V10.1L12.9501 14.475C12.6501 14.6417 12.3334 14.725 12.0001 14.725C11.6668 14.725 11.3501 14.6417 11.0501 14.475L2.6001 9.87499C2.41676 9.77499 2.2876 9.64999 2.2126 9.49999C2.1376 9.34999 2.1001 9.18333 2.1001 8.99999C2.1001 8.81666 2.1376 8.64999 2.2126 8.49999C2.2876 8.34999 2.41676 8.22499 2.6001 8.12499L11.0501 3.52499C11.2001 3.44166 11.3543 3.37916 11.5126 3.33749C11.6709 3.29583 11.8334 3.27499 12.0001 3.27499C12.1668 3.27499 12.3293 3.29583 12.4876 3.33749C12.6459 3.37916 12.8001 3.44166 12.9501 3.52499L22.4751 8.72499C22.6418 8.80833 22.7709 8.92916 22.8626 9.08749C22.9543 9.24583 23.0001 9.41666 23.0001 9.59999V16C23.0001 16.2833 22.9043 16.5208 22.7126 16.7125C22.5209 16.9042 22.2834 17 22.0001 17C21.7168 17 21.4793 16.9042 21.2876 16.7125C21.0959 16.5208 21.0001 16.2833 21.0001 16ZM11.0501 20.475L6.0501 17.775C5.71676 17.5917 5.45843 17.3417 5.2751 17.025C5.09176 16.7083 5.0001 16.3667 5.0001 16V12.2L11.0501 15.475C11.3501 15.6417 11.6668 15.725 12.0001 15.725C12.3334 15.725 12.6501 15.6417 12.9501 15.475L19.0001 12.2V16C19.0001 16.3667 18.9084 16.7083 18.7251 17.025C18.5418 17.3417 18.2834 17.5917 17.9501 17.775L12.9501 20.475C12.8001 20.5583 12.6459 20.6208 12.4876 20.6625C12.3293 20.7042 12.1668 20.725 12.0001 20.725C11.8334 20.725 11.6709 20.7042 11.5126 20.6625C11.3543 20.6208 11.2001 20.5583 11.0501 20.475Z"/>
</g>
</svg>
