<svg width="20" height="21" viewBox="0 0 20 21" fill="none" xmlns="http://www.w3.org/2000/svg">
<mask id="mask0_97_1880" style="mask-type:alpha" maskUnits="userSpaceOnUse" x="0" y="0" width="20" height="21">
<rect y="0.333313" width="20" height="20" fill="#D9D9D9"/>
</mask>
<g mask="url(#mask0_97_1880)">
<path d="M7.72917 17.3333C7.53472 17.3333 7.34722 17.2986 7.16667 17.2291C6.98611 17.1597 6.81944 17.0486 6.66667 16.8958L3.4375 13.6458C3.29861 13.5069 3.19097 13.3437 3.11458 13.1562C3.03819 12.9687 3 12.7778 3 12.5833V8.06248C3 7.86804 3.03472 7.68054 3.10417 7.49998C3.17361 7.31942 3.28472 7.15276 3.4375 6.99998L6.66667 3.77081C6.81944 3.61804 6.98611 3.50692 7.16667 3.43748C7.34722 3.36804 7.53472 3.33331 7.72917 3.33331H12.2708C12.4653 3.33331 12.6528 3.36804 12.8333 3.43748C13.0139 3.50692 13.1806 3.61804 13.3333 3.77081L16.5625 6.99998C16.7153 7.15276 16.8264 7.31942 16.8958 7.49998C16.9653 7.68054 17 7.86804 17 8.06248V12.6041C17 12.7986 16.9653 12.9861 16.8958 13.1666C16.8264 13.3472 16.7153 13.5139 16.5625 13.6666L13.3125 16.8958C13.1736 17.0347 13.0104 17.1423 12.8229 17.2187C12.6354 17.2951 12.4444 17.3333 12.25 17.3333H7.72917ZM10 11.3958L11.7083 13.0833C11.8611 13.2361 12.0347 13.3125 12.2292 13.3125C12.4236 13.3125 12.5972 13.2361 12.75 13.0833C12.9028 12.9305 12.9792 12.7569 12.9792 12.5625C12.9792 12.368 12.9028 12.1944 12.75 12.0416L11.0625 10.3333L12.75 8.62498C12.9028 8.4722 12.9792 8.29859 12.9792 8.10415C12.9792 7.9097 12.9028 7.73609 12.75 7.58331C12.5972 7.43054 12.4236 7.35415 12.2292 7.35415C12.0347 7.35415 11.8611 7.43054 11.7083 7.58331L10 9.27081L8.29167 7.58331C8.13889 7.43054 7.96528 7.35415 7.77083 7.35415C7.57639 7.35415 7.40278 7.43054 7.25 7.58331C7.09722 7.73609 7.02083 7.9097 7.02083 8.10415C7.02083 8.29859 7.09722 8.4722 7.25 8.62498L8.9375 10.3333L7.25 12.0416C7.09722 12.1944 7.02083 12.368 7.02083 12.5625C7.02083 12.7569 7.09722 12.9305 7.25 13.0833C7.40278 13.2361 7.57639 13.3125 7.77083 13.3125C7.96528 13.3125 8.13889 13.2361 8.29167 13.0833L10 11.3958Z" fill="#E47272"/>
</g>
</svg>
