<svg width="20" height="20" viewBox="0 0 20 20" fill="none" xmlns="http://www.w3.org/2000/svg">
<mask id="mask0_111_1524" style="mask-type:alpha" maskUnits="userSpaceOnUse" x="0" y="0" width="20" height="20">
<rect width="20" height="20" fill="#D9D9D9"/>
</mask>
<g mask="url(#mask0_111_1524)">
<path d="M12.4773 11.0208H4.62003C4.33697 11.0208 4.09614 10.9219 3.89753 10.724C3.69891 10.5262 3.59961 10.2863 3.59961 10.0044C3.59961 9.72243 3.69891 9.48111 3.89753 9.28042C4.09614 9.07958 4.33697 8.97917 4.62003 8.97917H12.4773L9.26544 5.76729C9.06072 5.56257 8.95642 5.32021 8.95253 5.04021C8.9485 4.76035 9.05037 4.51326 9.25815 4.29896C9.46593 4.09785 9.70975 3.99924 9.98961 4.00312C10.2695 4.00701 10.512 4.1116 10.7171 4.31687L15.6709 9.27708C15.7695 9.37583 15.846 9.48861 15.9004 9.61542C15.9547 9.74236 15.9819 9.87167 15.9819 10.0033C15.9819 10.135 15.9547 10.2642 15.9004 10.391C15.846 10.518 15.7723 10.628 15.6794 10.721L10.7092 15.691C10.4936 15.9067 10.2533 16.0111 9.98815 16.0042C9.72315 15.9972 9.48676 15.8892 9.27899 15.6802C9.07121 15.4659 8.96732 15.2196 8.96732 14.9412C8.96732 14.6629 9.07121 14.4222 9.27899 14.2192L12.4773 11.0208Z" fill="#35457E"/>
</g>
</svg>
