<svg width="16" height="17" viewBox="0 0 16 17" fill="none" xmlns="http://www.w3.org/2000/svg">
<mask id="mask0_501_2912" style="mask-type:alpha" maskUnits="userSpaceOnUse" x="0" y="0" width="16" height="17">
<rect y="0.333313" width="16" height="16" fill="#D9D9D9"/>
</mask>
<g mask="url(#mask0_501_2912)">
<path d="M7.9965 11.5333C8.1655 11.5333 8.30833 11.4758 8.425 11.3608C8.54167 11.2458 8.6 11.1033 8.6 10.9333V8.13332C8.6 7.96332 8.54283 7.82082 8.4285 7.70582C8.31417 7.59082 8.1725 7.53332 8.0035 7.53332C7.8345 7.53332 7.69167 7.59082 7.575 7.70582C7.45833 7.82082 7.4 7.96332 7.4 8.13332V10.9333C7.4 11.1033 7.45717 11.2458 7.5715 11.3608C7.68583 11.4758 7.8275 11.5333 7.9965 11.5333ZM7.9965 6.33332C8.1655 6.33332 8.30833 6.27615 8.425 6.16182C8.54167 6.04749 8.6 5.90582 8.6 5.73682C8.6 5.56782 8.54283 5.42499 8.4285 5.30832C8.31417 5.19165 8.1725 5.13332 8.0035 5.13332C7.8345 5.13332 7.69167 5.19049 7.575 5.30482C7.45833 5.41915 7.4 5.56082 7.4 5.72982C7.4 5.89882 7.45717 6.04165 7.5715 6.15832C7.68583 6.27499 7.8275 6.33332 7.9965 6.33332ZM8.00467 14.7333C7.12378 14.7333 6.29444 14.5667 5.51667 14.2333C4.73889 13.9 4.05833 13.4417 3.475 12.8583C2.89167 12.275 2.43333 11.5947 2.1 10.8173C1.76667 10.04 1.6 9.20943 1.6 8.32565C1.6 7.44187 1.76667 6.61387 2.1 5.84165C2.43333 5.06943 2.89167 4.39165 3.475 3.80832C4.05833 3.22499 4.73867 2.76665 5.516 2.43332C6.29333 2.09999 7.12389 1.93332 8.00767 1.93332C8.89144 1.93332 9.71944 2.09999 10.4917 2.43332C11.2639 2.76665 11.9417 3.22499 12.525 3.80832C13.1083 4.39165 13.5667 5.07065 13.9 5.84532C14.2333 6.6201 14.4 7.44788 14.4 8.32865C14.4 9.20954 14.2333 10.0389 13.9 10.8167C13.5667 11.5944 13.1083 12.275 12.525 12.8583C11.9417 13.4417 11.2627 13.9 10.488 14.2333C9.71322 14.5667 8.88544 14.7333 8.00467 14.7333Z" fill="#757575"/>
</g>
</svg>
