<svg width="17" height="16" viewBox="0 0 17 16" fill="none" xmlns="http://www.w3.org/2000/svg">
<g id="light_mode">
<mask id="mask0_466_2341" style="mask-type:alpha" maskUnits="userSpaceOnUse" x="0" y="0" width="17" height="17">
<rect id="Bounding box" x="0.416412" y="0.00037384" width="16" height="16" fill="#D9D9D9"/>
</mask>
<g mask="url(#mask0_466_2341)">
<path id="light_mode_2" d="M8.4168 10.0008C8.97235 10.0008 9.44457 9.80632 9.83346 9.41743C10.2224 9.02854 10.4168 8.55632 10.4168 8.00077C10.4168 7.44521 10.2224 6.97299 9.83346 6.5841C9.44457 6.19521 8.97235 6.00077 8.4168 6.00077C7.86124 6.00077 7.38902 6.19521 7.00013 6.5841C6.61124 6.97299 6.4168 7.44521 6.4168 8.00077C6.4168 8.55632 6.61124 9.02854 7.00013 9.41743C7.38902 9.80632 7.86124 10.0008 8.4168 10.0008ZM8.41296 11.2008C7.52663 11.2008 6.77235 10.8884 6.15013 10.2636C5.52791 9.63893 5.2168 8.88338 5.2168 7.99693C5.2168 7.1106 5.52919 6.35632 6.15396 5.7341C6.77863 5.11188 7.53419 4.80077 8.42063 4.80077C9.30696 4.80077 10.0612 5.11315 10.6835 5.73793C11.3057 6.3626 11.6168 7.11816 11.6168 8.0046C11.6168 8.89093 11.3044 9.64521 10.6796 10.2674C10.055 10.8897 9.29941 11.2008 8.41296 11.2008ZM4.0168 8.60077H1.2168V7.40077H4.0168V8.60077ZM15.6168 8.60077H12.8168V7.40077H15.6168V8.60077ZM7.8168 3.60077V0.800766H9.0168V3.60077H7.8168ZM7.8168 15.2008V12.4008H9.0168V15.2008H7.8168ZM4.90013 5.30077L3.18346 3.6341L4.03346 2.71743L5.73346 4.45077L4.90013 5.30077ZM12.8001 13.2174L11.1168 11.5341L11.9335 10.6841L13.6501 12.3674L12.8001 13.2174ZM11.0835 4.4841L12.7835 2.80077L13.6335 3.61743L11.9668 5.3341L11.0835 4.4841ZM3.13346 12.3841L4.88346 10.7341L5.70013 11.5174L4.0668 13.2508L3.13346 12.3841Z" fill="#ACB3CA"/>
</g>
</g>
</svg>
