<svg width="20" height="21" viewBox="0 0 20 21" fill="none" xmlns="http://www.w3.org/2000/svg">
<mask id="mask0_501_2918" style="mask-type:alpha" maskUnits="userSpaceOnUse" x="0" y="0" width="20" height="21">
<rect y="0.333313" width="20" height="20" fill="#D9D9D9"/>
</mask>
<g mask="url(#mask0_501_2918)">
<path d="M5.49417 18.3333C5.08139 18.3333 4.72917 18.1864 4.4375 17.8927C4.14583 17.5989 4 17.2458 4 16.8333V8.83331C4 8.42081 4.14687 8.06769 4.44062 7.77394C4.73437 7.48019 5.0875 7.33331 5.5 7.33331H6V5.33331C6 4.22665 6.39049 3.28331 7.17146 2.50331C7.95229 1.72331 8.89674 1.33331 10.0048 1.33331C11.1127 1.33331 12.0556 1.72331 12.8333 2.50331C13.6111 3.28331 14 4.22665 14 5.33331V7.33331H14.5C14.9125 7.33331 15.2656 7.48019 15.5594 7.77394C15.8531 8.06769 16 8.42081 16 8.83331V16.8333C16 17.2458 15.8531 17.5989 15.5592 17.8927C15.2653 18.1864 14.9119 18.3333 14.4992 18.3333H5.49417ZM10.0044 14.3333C10.4181 14.3333 10.7708 14.186 11.0625 13.8914C11.3542 13.5969 11.5 13.2427 11.5 12.8289C11.5 12.4152 11.3527 12.0625 11.0581 11.7708C10.7635 11.4791 10.4094 11.3333 9.99563 11.3333C9.58188 11.3333 9.22917 11.4806 8.9375 11.7752C8.64583 12.0698 8.5 12.4239 8.5 12.8377C8.5 13.2514 8.64729 13.6041 8.94187 13.8958C9.23646 14.1875 9.59062 14.3333 10.0044 14.3333ZM7.5 7.33331H12.5V5.33331C12.5 4.63887 12.2569 4.04859 11.7708 3.56248C11.2847 3.07637 10.6944 2.83331 10 2.83331C9.30556 2.83331 8.71528 3.07637 8.22917 3.56248C7.74306 4.04859 7.5 4.63887 7.5 5.33331V7.33331Z" fill="#B0B0B0"/>
</g>
</svg>
