<svg width="20" height="20" viewBox="0 0 20 20" fill="none" xmlns="http://www.w3.org/2000/svg">
<mask id="mask0_155_1836" style="mask-type:alpha" maskUnits="userSpaceOnUse" x="0" y="0" width="20" height="20">
<rect width="20" height="20" fill="#D9D9D9"/>
</mask>
<g mask="url(#mask0_155_1836)">
<path d="M8.00063 13C6.61132 13 5.43056 12.5139 4.45833 11.5417C3.48611 10.5694 3 9.38889 3 8C3 6.61111 3.48611 5.43056 4.45833 4.45833C5.43056 3.48611 6.61111 3 8 3C9.38889 3 10.5694 3.48611 11.5417 4.45833C12.5139 5.43056 13 6.61132 13 8.00063C13 8.5616 12.9132 9.09063 12.7396 9.58771C12.566 10.0848 12.3264 10.5417 12.0208 10.9583L16.4792 15.4167C16.6319 15.5694 16.7083 15.7431 16.7083 15.9375C16.7083 16.1319 16.6319 16.3056 16.4792 16.4583C16.3264 16.6111 16.1493 16.6875 15.9479 16.6875C15.7465 16.6875 15.5694 16.6111 15.4167 16.4583L10.9583 12.0208C10.5417 12.3264 10.0848 12.566 9.58771 12.7396C9.09063 12.9132 8.5616 13 8.00063 13ZM8 11.5C8.97222 11.5 9.79861 11.1597 10.4792 10.4792C11.1597 9.79861 11.5 8.97222 11.5 8C11.5 7.02778 11.1597 6.20139 10.4792 5.52083C9.79861 4.84028 8.97222 4.5 8 4.5C7.02778 4.5 6.20139 4.84028 5.52083 5.52083C4.84028 6.20139 4.5 7.02778 4.5 8C4.5 8.97222 4.84028 9.79861 5.52083 10.4792C6.20139 11.1597 7.02778 11.5 8 11.5Z" fill="#757575"/>
</g>
</svg>
