<svg width="24" height="24" viewBox="0 0 24 24" xmlns="http://www.w3.org/2000/svg">
<mask id="mask0_119_1653" style="mask-type:alpha" maskUnits="userSpaceOnUse" x="0" y="0" width="24" height="24">
<rect width="24" height="24" fill="#D9D9D9"/>
</mask>
<g mask="url(#mask0_119_1653)">
<path d="M8 16C8.28333 16 8.52083 15.9042 8.7125 15.7125C8.90417 15.5208 9 15.2833 9 15V5C9 4.71667 8.90417 4.47917 8.7125 4.2875C8.52083 4.09583 8.28333 4 8 4C7.71667 4 7.47917 4.09583 7.2875 4.2875C7.09583 4.47917 7 4.71667 7 5V15C7 15.2833 7.09583 15.5208 7.2875 15.7125C7.47917 15.9042 7.71667 16 8 16ZM6 22C5.16667 22 4.45833 21.7083 3.875 21.125C3.29167 20.5417 3 19.8333 3 19V5C3 4.16667 3.29167 3.45833 3.875 2.875C4.45833 2.29167 5.16667 2 6 2H15C15.55 2 16.0208 2.19583 16.4125 2.5875C16.8042 2.97917 17 3.45 17 4V16C17 16.55 16.8042 17.0208 16.4125 17.4125C16.0208 17.8042 15.55 18 15 18H6C5.71667 18 5.47917 18.0958 5.2875 18.2875C5.09583 18.4792 5 18.7167 5 19C5 19.2833 5.09583 19.5208 5.2875 19.7125C5.47917 19.9042 5.71667 20 6 20H19V5C19 4.71667 19.0958 4.47917 19.2875 4.2875C19.4792 4.09583 19.7167 4 20 4C20.2833 4 20.5208 4.09583 20.7125 4.2875C20.9042 4.47917 21 4.71667 21 5V20C21 20.55 20.8042 21.0208 20.4125 21.4125C20.0208 21.8042 19.55 22 19 22H6Z"/>
</g>
</svg>
