<svg width="20" height="21" viewBox="0 0 20 21" fill="none" xmlns="http://www.w3.org/2000/svg">
<mask id="mask0_501_72" style="mask-type:alpha" maskUnits="userSpaceOnUse" x="0" y="0" width="20" height="21">
<rect y="0.333313" width="20" height="20" fill="#D9D9D9"/>
</mask>
<g mask="url(#mask0_501_72)">
<path d="M10 10.3333C9.16667 10.3333 8.45833 10.0416 7.875 9.45831C7.29167 8.87498 7 8.16665 7 7.33331C7 6.49998 7.29167 5.79165 7.875 5.20831C8.45833 4.62498 9.16667 4.33331 10 4.33331C10.8333 4.33331 11.5417 4.62498 12.125 5.20831C12.7083 5.79165 13 6.49998 13 7.33331C13 8.16665 12.7083 8.87498 12.125 9.45831C11.5417 10.0416 10.8333 10.3333 10 10.3333ZM4 14.8333V14.3333C4 14.0139 4.08681 13.7118 4.26042 13.4271C4.43403 13.1423 4.67361 12.9028 4.97917 12.7083C5.74306 12.2639 6.55208 11.9236 7.40625 11.6875C8.26042 11.4514 9.125 11.3333 10 11.3333C10.875 11.3333 11.7396 11.4514 12.5938 11.6875C13.4479 11.9236 14.2569 12.2639 15.0208 12.7083C15.3264 12.8889 15.566 13.125 15.7396 13.4166C15.9132 13.7083 16 14.0139 16 14.3333V14.8333C16 15.25 15.8542 15.6041 15.5625 15.8958C15.2708 16.1875 14.9167 16.3333 14.5 16.3333H5.5C5.08333 16.3333 4.72917 16.1875 4.4375 15.8958C4.14583 15.6041 4 15.25 4 14.8333Z" fill="#B0B0B0"/>
</g>
</svg>
